<svg width="1440" height="1063" viewBox="0 0 1440 1063" fill="none" xmlns="http://www.w3.org/2000/svg">
<g clip-path="url(#clip0_2008_891)">
<rect width="1440" height="1063" fill="#5B5AD1"/>
<path d="M792.172 37.5869H854.772L739.389 176L781.511 65.7143H732L820.769 -24L792.172 37.5869Z" stroke="#6867D5" stroke-width="10"/>
<path d="M580.406 364.679C550.125 361.445 416.201 375.344 388.227 389.793C388.227 390.481 388.542 390.522 388.926 390.481C392.143 390.137 447.348 379.708 487.324 376.169C500.276 375.023 514.415 374.156 527.746 372.523C541.076 370.889 580.406 364.679 580.406 364.679Z" fill="#6867D5"/>
<path d="M667.894 344.106C667.894 344.106 668.174 344.244 667.824 344.932C667.636 345.024 666.915 345.482 665.096 346.308C662.439 347.959 556.521 344.256 495.296 350.574L318.852 366.95C317.221 367.084 318.433 365.78 318.433 365.78C341.084 358.731 364.31 351.262 425.922 346.102C468.162 341.288 546.775 336.661 562.853 337.02C586.84 337.02 637.923 340.367 667.894 344.106Z" fill="#6867D5"/>
<path d="M662.95 933L426.267 1030.64L496.876 1044.8M662.95 933L496.876 1044.8M662.95 933L647.871 1085.01L560.505 1062.06M662.95 933L544.546 1057.87M496.876 1044.8L519.875 1117.97M544.546 1057.87L519.875 1117.97M544.546 1057.87L560.505 1062.06M519.875 1117.97L560.505 1062.06" stroke="#6867D5" stroke-width="10"/>
<path d="M61.2014 713.637C-6.64807 670.832 95.2969 616.712 83.8211 705.26" stroke="white" stroke-width="4" stroke-linecap="round" stroke-linejoin="round"/>
<path d="M84.1017 717.183C80.0559 722.419 75.6806 723.233 69.6907 722.13" stroke="white" stroke-width="4" stroke-linecap="round" stroke-linejoin="round"/>
<path d="M88.1755 727.331C83.9163 731.367 78.2056 734.678 72.4114 732.512" stroke="white" stroke-width="4" stroke-linecap="round" stroke-linejoin="round"/>
<path opacity="0.503384" d="M71.6897 709.733C72.3303 706.282 63.9736 677.887 58.3308 681.348C52.4473 684.958 58.7243 694.981 65.1377 693.406C76.1753 690.697 69.457 673.479 65.8047 682.814C64.2165 686.876 64.8446 691.268 63.6429 695.402" stroke="white" stroke-width="4" stroke-linecap="round" stroke-linejoin="round"/>
<path opacity="0.503384" d="M52.8362 647.011C52.6153 644.679 51.5562 642.638 51.0938 640.408" stroke="white" stroke-width="4" stroke-linecap="round" stroke-linejoin="round"/>
<path opacity="0.503384" d="M30.677 662.162C29.2307 661.299 27.9382 660.126 26.5627 659.119" stroke="white" stroke-width="4" stroke-linecap="round" stroke-linejoin="round"/>
<path opacity="0.503384" d="M28.6005 690.637C26.998 690.812 25.344 690.809 23.7258 690.507" stroke="white" stroke-width="4" stroke-linecap="round" stroke-linejoin="round"/>
<path opacity="0.503384" d="M76.453 650.05C77.4603 648.856 78.3797 647.582 79.2902 646.304" stroke="white" stroke-width="4" stroke-linecap="round" stroke-linejoin="round"/>
<path opacity="0.503384" d="M90.2317 672.969C92.1842 672.479 93.7666 671.33 95.4052 670.238" stroke="white" stroke-width="4" stroke-linecap="round" stroke-linejoin="round"/>
<path d="M1315.67 137.223C1316.02 134.571 1323.44 122.973 1324.36 122.434C1327.1 120.834 1365.49 122.08 1370.74 125.265C1372.8 126.516 1380.79 141.689 1380.79 143.528C1380.79 144.69 1361.28 145.629 1357.9 145.797C1354 145.992 1345.52 145.451 1337.03 143.528C1330.07 141.953 1323.25 139.779 1316.02 138.941C1315.85 138.921 1320.09 146 1324.36 152.126C1326.35 154.984 1339.88 180.705 1341.75 181.551C1343.62 182.396 1376.78 146.756 1381.11 143.673" stroke="white" stroke-width="4" stroke-linecap="round" stroke-linejoin="round"/>
<path d="M1357.6 146.414C1353.1 155.993 1345.01 174.278 1343.62 179.759" stroke="white" stroke-width="4" stroke-linecap="round" stroke-linejoin="round"/>
<path d="M1338.12 145.958C1339.54 157.23 1341.47 168.564 1342.78 179.759" stroke="white" stroke-width="4" stroke-linecap="round" stroke-linejoin="round"/>
<path d="M1341.08 120.834C1338.43 128.328 1339.22 136.791 1338.12 144.587" stroke="white" stroke-width="4" stroke-linecap="round" stroke-linejoin="round"/>
<path d="M1356.33 122.662C1357.06 129.43 1356.13 141.922 1358.45 146.414" stroke="white" stroke-width="4" stroke-linecap="round" stroke-linejoin="round"/>
<path opacity="0.503384" d="M1303.95 120.834C1300.91 118.779 1298.23 116.807 1297.88 116.724" stroke="white" stroke-width="4" stroke-linecap="round" stroke-linejoin="round"/>
<path opacity="0.503384" d="M1323.29 103.477C1322.05 101.021 1323.29 101.354 1321.29 97.9277" stroke="white" stroke-width="4" stroke-linecap="round" stroke-linejoin="round"/>
<path opacity="0.503384" d="M1354.65 105.761C1354.16 102.789 1354.66 99.5682 1354.83 96.625" stroke="white" stroke-width="4" stroke-linecap="round" stroke-linejoin="round"/>
<path opacity="0.503384" d="M1378.78 112.612C1381.11 110.785 1381.78 109.944 1383.44 108.958" stroke="white" stroke-width="4" stroke-linecap="round" stroke-linejoin="round"/>
<path opacity="0.503384" d="M1397.84 139.562C1399.96 138.992 1400.67 139.11 1402.08 138.42" stroke="white" stroke-width="4" stroke-linecap="round" stroke-linejoin="round"/>
<path opacity="0.503384" d="M1386.83 173.821C1387.92 174.933 1388.83 176.243 1389.79 177.475" stroke="white" stroke-width="4" stroke-linecap="round" stroke-linejoin="round"/>
<path opacity="0.503384" d="M1299.99 150.294C1299.41 150.983 1298.58 151.214 1297.88 151.67" stroke="white" stroke-width="4" stroke-linecap="round" stroke-linejoin="round"/>
</g>
<defs>
<clipPath id="clip0_2008_891">
<rect width="1440" height="1063" fill="white"/>
</clipPath>
</defs>
</svg>
